<svg xmlns="http://www.w3.org/2000/svg" width="130" height="50" fill="none" class="header__nav__logo" viewBox="0 0 70 25"><g fill="#103559" clip-path="url(#a)"><path d="M20.18 20.13c.39 0 .7.13.96.39s.39.58.39.96-.13.7-.4.96a1.3 1.3 0 0 1-.95.38h-.83v1.4h-.67v-4.09h1.5Zm0 2.06c.4 0 .68-.3.68-.72 0-.41-.28-.71-.68-.71h-.83v1.42h.83ZM22.53 23.06c.1.4.47.63.98.64.35 0 .61-.12.8-.34l.54.28c-.3.4-.75.6-1.34.6-.5-.01-.9-.15-1.21-.4a1.3 1.3 0 0 1-.46-1.03c0-.4.15-.74.45-1 .3-.28.7-.41 1.17-.41.45 0 .82.14 1.1.41a1.34 1.34 0 0 1 .41 1.26h-2.44v-.01Zm1.8-.47c-.1-.44-.44-.67-.88-.67-.49 0-.83.25-.92.66h1.8ZM26.9 21.89h-.73v1.4c0 .38.24.37.72.35v.57c-.97.12-1.36-.15-1.36-.92v-1.4H25v-.62h.54v-.63l.63-.18v.82h.72v.61ZM28.45 22.57c.42.09.98.26.96.84 0 .26-.1.46-.3.61-.21.15-.47.22-.78.22-.54 0-.95-.24-1.13-.63l.52-.3c.1.27.3.4.61.4.32 0 .47-.1.47-.3 0-.18-.23-.28-.52-.35-.42-.1-.98-.26-.96-.83 0-.25.1-.45.29-.6.19-.15.44-.23.72-.23.46 0 .83.22 1.03.57l-.5.27c-.1-.2-.28-.3-.53-.3-.22 0-.4.1-.4.28 0 .18.23.27.52.35ZM33.2 20.76c-.49-.05-.73.14-.73.56v.06h.74v.6h-.74v2.27h-.69v-2.28h-.47v-.6h.48v-.05c0-.79.5-1.21 1.42-1.16v.6ZM33.98 23.84a1.3 1.3 0 0 1-.46-1c0-.4.16-.74.46-1.02.3-.27.69-.4 1.12-.4.44 0 .81.13 1.12.4.3.28.46.62.46 1.02s-.16.73-.47 1c-.3.28-.67.41-1.11.41a1.6 1.6 0 0 1-1.12-.41Zm1.12-.15c.26 0 .48-.08.66-.25a.79.79 0 0 0 .27-.6.79.79 0 0 0-.27-.61.95.95 0 0 0-.66-.25.95.95 0 0 0-.66.24.79.79 0 0 0-.27.61c0 .25.09.45.26.61.18.16.4.25.67.25ZM37.64 21.94c.17-.35.48-.52.93-.52v.65a1 1 0 0 0-.65.17c-.18.12-.28.33-.28.61v1.4h-.65v-2.78h.66v.47ZM43.3 23.1a1.14 1.14 0 0 1-1.17 1.17h-1.67l.01-4.1h1.55c.32 0 .59.11.8.33.23.21.34.48.34.8a1 1 0 0 1-.4.84c.34.19.54.53.54.95Zm-2.19-2.3v1.08h.9c.3 0 .51-.24.51-.54 0-.3-.22-.54-.5-.54h-.9Zm1.03 2.83c.3 0 .53-.25.53-.57 0-.32-.23-.57-.53-.57h-1.03v1.14h1.03ZM44.63 23.1c.1.4.47.63.98.63.35 0 .61-.1.79-.33l.54.28c-.3.4-.74.6-1.34.59-.5 0-.9-.14-1.2-.4a1.3 1.3 0 0 1-.46-1.02c0-.41.15-.74.45-1 .3-.28.7-.42 1.17-.41.44 0 .81.14 1.1.41a1.35 1.35 0 0 1 .41 1.25h-2.44Zm1.8-.47c-.1-.44-.45-.67-.88-.67-.49 0-.83.25-.93.66h1.8ZM48.34 22.6c.42.1.98.27.96.85 0 .26-.1.46-.3.6-.21.15-.47.23-.78.23-.54 0-.95-.24-1.13-.64l.52-.29c.1.26.3.4.61.4.32 0 .47-.1.47-.3 0-.18-.23-.28-.52-.35-.42-.1-.97-.27-.96-.84 0-.25.1-.45.29-.6.2-.15.44-.22.72-.22.46 0 .83.21 1.03.56l-.5.28c-.1-.2-.28-.3-.53-.3-.22 0-.4.09-.4.28 0 .18.23.27.52.35ZM51.52 21.93h-.73v1.4c0 .38.25.38.72.35v.57c-.96.12-1.35-.14-1.35-.91v-1.4l-.54-.01v-.61h.54v-.63l.64-.19v.82h.72v.61ZM15.68 2.52c-.08-.82-.41-.98-1.05-.98h-2.7c-.6-.01-.74.1-.97.74l-2.04 6.6-2.02-6.6c-.22-.66-.37-.76-.96-.76H3.23c-.64 0-.97.16-1.05.97L.72 15.45c-.06.47-.02.66.4.72l3.09.45c.47.06.57-.04.63-.39l.7-6.07 1.44 5.7c.14.46.32.65.8.65h2.25c.47 0 .66-.18.8-.65l1.45-5.69.69 6.08c.06.35.16.45.63.39l3.1-.45c.41-.05.45-.24.4-.7L15.67 2.51ZM23.13 5.02c-3.47-.01-5.37 2.37-5.37 5.66-.01 3.28 1.88 5.67 5.35 5.68 3.48 0 5.37-2.38 5.38-5.66 0-3.3-1.88-5.68-5.36-5.68Zm-.01 7.63c-.84 0-1.28-.79-1.28-1.97s.45-1.96 1.29-1.96c.83 0 1.28.78 1.27 1.96 0 1.19-.45 1.97-1.28 1.97ZM36.3 5.05c-.71 0-6.05.13-6.4.61-.14.17-.14.4-.14.77l.15 8.86c.02.81.2 1.08.91 1.08h2.49c.7 0 .91-.26.91-1.07l.01-6.12c.31-.1.41-.14.76-.16.46-.02.69.13.83.51.1.4.12 1.02.12 1.85l-.02 3.92c0 .81.22 1.08.93 1.08h2.55c.71 0 .9-.26.91-1.07l.18-5.4a5.55 5.55 0 0 0-.93-3.44 3.93 3.93 0 0 0-3.26-1.43ZM45.85 6.32h-2.56c-.7 0-.9.23-.9 1.04l-.02 7.96c0 .8.2 1.07.9 1.07h2.6c.7 0 .92-.26.92-1.06l-.02-7.96c0-.79-.22-1.05-.92-1.05ZM44.77.96c-1.52 0-2.37.93-2.38 2.2 0 1.27.85 2.2 2.37 2.21 1.51 0 2.37-.93 2.37-2.2S46.28.97 44.77.96ZM55.75 5.4h-1.58V2.66c0-.8-.2-1.05-.92-1.05H50.8c-.73-.01-.96.25-.96 1.05v2.73H48.6c-.69 0-.85.12-.85.75v2.21c0 .63.16.76.84.76h1.24v3.85c-.01 2.6 1.37 3.76 3.98 3.77.77 0 1.53-.06 2.26-.2.3-.06.4-.15.4-.45l-.1-3.1c0-.27-.15-.37-.42-.31-.22.06-.45.1-.76.1-.6 0-1.04-.21-1.04-1.08V9.1h1.58c.68 0 .85-.12.85-.75v-2.2c0-.64-.16-.76-.84-.76ZM62.6 5.09c-3.48-.01-5.37 2.37-5.38 5.66 0 3.28 1.88 5.67 5.36 5.68 3.47 0 5.37-2.38 5.37-5.66 0-3.3-1.88-5.68-5.35-5.68Zm-.02 7.63c-.83 0-1.28-.79-1.28-1.97s.46-1.96 1.29-1.96c.83 0 1.28.78 1.28 1.97 0 1.18-.45 1.96-1.29 1.96ZM68.96 5.54c-.36-.26-.96-.11-1.34.34-.38.45-.39 1.03-.03 1.3.37.26.97.1 1.34-.35.38-.45.4-1.02.03-1.29ZM60.38 4.76c.43-.06.7-.6.63-1.21-.09-.6-.5-1.05-.92-.98-.43.06-.72.6-.63 1.21.08.6.49 1.05.92.98ZM65.93 5.33c.6.3 1.5-.27 2-1.27.52-1 .46-2.05-.14-2.35-.6-.3-1.5.27-2 1.26-.52 1-.45 2.06.14 2.36ZM62.86 4.45c.6.08 1.18-.7 1.3-1.74.12-1.05-.27-1.95-.87-2.03-.6-.07-1.18.7-1.3 1.75-.12 1.04.27 1.94.87 2.02Z"/></g><defs><clipPath id="a"><path fill="#fff" d="m.73.57 68.82.12-.05 23.94L.68 24.5z"/></clipPath></defs></svg>